<?xml version="1.0" encoding="UTF-8"?>
<svg width="700pt" height="700pt" version="1.1" viewBox="0 0 700 700" xmlns="http://www.w3.org/2000/svg">
 <path d="m100.58 524.93c14.707-124.79 119.56-218.25 245.99-218.25 126.44 0 231.29 93.461 246 218.25zm124.27-373.73c0-67.125 54.602-121.72 121.71-121.72 67.125 0 121.73 54.598 121.73 121.72 0 67.113-54.602 121.73-121.73 121.73-67.113 0-121.71-54.613-121.71-121.73zm190.02 134.77c49.145-24.965 82.895-75.863 82.895-134.77 0-83.496-67.688-151.2-151.2-151.2-83.5 0-151.19 67.703-151.19 151.2 0 58.906 33.746 109.8 82.895 134.77-111.53 28.309-196.21 123.97-207.6 241.32-1.4141 14.59 10.492 27.117 25.156 27.117h501.48c14.664 0 26.57-12.527 25.156-27.117-11.391-117.35-96.07-213.01-207.6-241.32z" fill-rule="evenodd"/>
</svg>
