<svg xmlns="http://www.w3.org/2000/svg" xmlns:xlink="http://www.w3.org/1999/xlink" version="1.1" x="0px" y="0px" viewBox="0 0 100 125" style="enable-background:new 0 0 100 100;" xml:space="preserve"><style type="text/css">
	.st0{fill-rule:evenodd;clip-rule:evenodd;}
</style><path d="M95.7874222,87.5080948L73.9420471,65.6592255c11.4081573-15.4695168,10.0686188-37.669014-3.8227234-51.5580902  C62.6361046,6.6205382,52.6880264,2.5000432,42.1091614,2.5000432c-10.5802612,0-20.5265961,4.1204958-28.0066719,11.6010933  C6.6204953,21.5843506,2.4999993,31.5296421,2.4999993,42.1078072c0,10.5795593,4.1204958,20.5265961,11.6024895,28.0101585  c7.4799013,7.4819946,17.4264107,11.6024857,28.0084114,11.6024857c8.5633583,0,16.7703323-2.73246,23.5566483-7.7722626  l21.8401489,21.8366623c1.1059265,1.1066208,2.5758057,1.7151031,4.1389847,1.7151031  c1.5679321,0,3.0412292-0.612587,4.1340942-1.71035c1.1079941-1.1045609,1.7185364-2.5751114,1.719223-4.1402054  c0.001358-1.5652161-0.6071548-3.0363388-1.7130737-4.1423035L95.7874222,87.5080948z M42.1081161,14.2075434  c7.4519882,0,14.4575806,2.9021921,19.7293968,8.1734819c5.260479,5.2597752,8.1579552,12.2653675,8.1579552,19.7276478  s-2.8973083,14.468399-8.1586533,19.7293968c-5.269371,5.2700691-12.2756615,8.1722603-19.7276497,8.1722603  s-14.4575825-2.9021912-19.7293968-8.1722603c-5.2700672-5.2679787-8.1722593-12.2742691-8.1722593-19.7293968  c0-7.4519882,2.9021921-14.4575825,8.1722593-19.7276516c5.2721615-5.2700672,12.2777557-8.173481,19.7293968-8.173481  L42.1081161,14.2075434z"/></svg>