<svg version="1.1" xmlns="http://www.w3.org/2000/svg" xmlns:xlink="http://www.w3.org/1999/xlink"
    x="0px" y="0px" viewBox="0 0 1000 1000" enable-background="new 0 0 1000 1000"
    xml:space="preserve">
<metadata> Svg Vector Icons : http://www.onlinewebfonts.com/icon </metadata>
    <g><g transform="translate(0.000000,511.000000) scale(0.100000,-0.100000)"><path d="M1904.7,2505.3c-54.7-52.5-54.7-59.1-54.7-437.5V1685h-470.3c-623.4,0-579.7,37.2-579.7-492.2V810H504.7c-286.6,0-299.7-2.2-350-54.7L100,702.8V110v-592.8l54.7-52.5c50.3-52.5,63.4-54.7,350-54.7H800v-382.8c0-529.4-43.8-492.2,579.7-492.2H1850v-382.8c0-378.4,0-385,54.7-437.5l52.5-54.7H2550h592.8l52.5,54.7l54.7,52.5v822.5V-590h1750h1750v-820.3v-822.5l54.7-52.5l52.5-54.7H7450h592.8l52.5,54.7c54.7,52.5,54.7,59.1,54.7,437.5v382.8h470.3c623.4,0,579.7-37.2,579.7,492.2V-590h295.3c286.6,0,299.7,2.2,350,54.7l54.7,52.5V110v592.8l-54.7,52.5c-50.3,52.5-63.4,54.7-350,54.7H9200v382.8c0,529.4,43.8,492.2-579.7,492.2H8150v382.8c0,378.4,0,385-54.7,437.5l-52.5,54.7H7450h-592.8l-52.5-54.7l-54.7-52.5v-822.5V810H5000H3250v820.3v822.5l-54.7,52.5l-52.5,54.7H2550h-592.8L1904.7,2505.3z M2900,110v-2100h-350h-350V110v2100h350h350V110z M7800,110v-2100h-350h-350V110v2100h350h350V110z M1850,110v-1225h-350h-350V110v1225h350h350V110z M8850,110v-1225h-350h-350V110v1225h350h350V110z M800,110v-350H625H450v350v350h175h175V110z M6750,110v-350H5000H3250v350v350h1750h1750V110z M9550,110v-350h-175h-175v350v350h175h175V110z"/></g></g>
</svg>