<svg xmlns="http://www.w3.org/2000/svg" xmlns:xlink="http://www.w3.org/1999/xlink" version="1.1"
    x="0px" y="0px" viewBox="0 0 100 125" enable-background="new 0 0 100 100" xml:space="preserve"><rect x="0" y="0" fill="none" width="100" height="100"/>
    <g><path d="M51.942,2.039C38.349,1.505,25.538,6.593,16.134,15.991c0.021-1.629,0.044-3.288,0.068-4.907   c0.037-2.538-1.99-4.627-4.529-4.664C9.131,6.358,7.047,8.41,7.01,10.949c0,0-0.068,4.605-0.122,9.225   c-0.131,11.14-0.131,11.14,1.282,12.573h0c0.864,0.877,2.045,1.371,3.276,1.371l19.4,0c2.401,0,4.545-1.755,4.773-4.145   c0.262-2.742-1.887-5.049-4.575-5.049H20.399c7.752-9.157,19.12-14.197,31.253-13.695c19.66,0.813,35.819,16.602,37.073,36.239   C90.164,70.006,72.236,88.806,50,88.806c-21.343,0-38.717-17.319-38.806-38.641c-0.01-2.373-1.744-4.489-4.104-4.735   C4.33,45.142,2,47.299,2,50C2,76.467,23.533,98,50,98c26.994,0,48.855-22.398,47.974-49.585   C97.166,23.455,76.896,3.019,51.942,2.039z"/>
        <path
            d="M49.013,25.342c-2.539,0-4.597,2.058-4.597,4.597v20.059c0,2.111,1.685,5.773,6.686,5.851h17.552   c2.539,0,4.597-2.058,4.597-4.597c0-2.538-2.058-4.597-4.597-4.597H53.61V29.939C53.61,27.4,51.552,25.342,49.013,25.342z" /></g></svg>