<svg xmlns="http://www.w3.org/2000/svg" xmlns:xlink="http://www.w3.org/1999/xlink" version="1.1" x="0px" y="0px" viewBox="0 0 100 125" enable-background="new 0 0 100 100" xml:space="preserve"><path d="M79.1,30.7H68.3c1.2-2.5,1.8-5.3,1.8-8.3c0-5.5-2.2-10.5-5.9-14.1c-3.6-3.6-8.6-5.8-14.1-5.8S39.7,4.7,36.1,8.3  c-3.6,3.6-5.9,8.6-5.9,14.1c0,3,0.7,5.8,1.8,8.3H21.3L4.4,97.3h33.2h25.2h33.2L79.1,30.7z M36.7,22.4C36.7,15,42.7,9,50.2,9  c7.4,0,13.5,6,13.5,13.5c0,3.1-1.1,6-2.9,8.3H39.6C37.8,28.4,36.7,25.5,36.7,22.4z"/></svg>