<svg width="55" height="53" viewBox="0 0 55 53" fill="none" xmlns="http://www.w3.org/2000/svg">
<path d="M54.5 26.1017C54.5 40.2169 42.4366 51.7034 27.5 51.7034C12.5634 51.7034 0.5 40.2169 0.5 26.1017C0.5 11.9865 12.5634 0.5 27.5 0.5C42.4366 0.5 54.5 11.9865 54.5 26.1017Z" fill="white" stroke="black"/>
<g clip-path="url(#clip0_60_720)">
<path d="M21.7588 11.4452C12.1801 14.0319 8.49808 22.9069 17.095 25.8908H17.0252C17.0657 25.8963 17.1064 25.9026 17.1467 25.9086C17.7193 26.1047 18.3466 26.274 19.0286 26.4146C22.2338 27.6735 24.5521 30.724 24.7401 33.705C22.6044 35.1768 20.9504 37.7098 20.9504 37.7098L22.625 40.175L19.9983 41.6707H25.2218C22.6458 39.0939 24.4724 36.1963 27.5239 36.1963C30.6171 36.1963 32.236 39.2622 29.8279 41.6707H34.9977L32.4248 40.175L34.0997 37.7098C34.0997 37.7098 32.4189 35.1353 30.2582 33.6692C30.4624 30.6995 32.7753 27.6685 35.9676 26.4145C36.6499 26.2739 37.2769 26.1048 37.8494 25.9087C37.8898 25.9026 37.9305 25.8963 37.971 25.8909H37.8993C46.4975 22.9073 42.8165 14.032 33.2374 11.4451C30.6424 13.9539 33.6542 17.9248 36.0175 15.0695C38.3689 19.4717 36.5657 23.2 31.4114 20.3846C30.6544 21.9453 29.2312 23.0211 27.5441 23.0211C25.8425 23.0211 24.4109 21.9272 23.6588 20.3447C18.4478 23.2365 16.6164 19.4926 18.979 15.0695C21.3426 17.9247 24.3542 13.9539 21.7591 11.4451L21.7588 11.4452ZM27.5444 13.7342C25.7991 13.7342 24.2734 15.4902 24.2734 17.7877C24.2734 20.0854 25.7991 21.8021 27.5444 21.8021C29.2896 21.8021 30.8152 20.0853 30.8152 17.7878C30.8152 15.49 29.2896 13.7343 27.5443 13.7343L27.5444 13.7342Z" fill="black"/>
</g>
<defs>
<clipPath id="clip0_60_720">
<rect width="30.7627" height="30.7627" fill="white" transform="translate(12.1186 11.1865)"/>
</clipPath>
</defs>
</svg>
