<?xml version="1.0" encoding="UTF-8" standalone="no" ?>
<!DOCTYPE svg PUBLIC "-//W3C//DTD SVG 1.1//EN" "http://www.w3.org/Graphics/SVG/1.1/DTD/svg11.dtd">
<svg xmlns="http://www.w3.org/2000/svg" xmlns:xlink="http://www.w3.org/1999/xlink" version="1.1" width="1080" height="1080" viewBox="0 0 1080 1080" xml:space="preserve">
<desc>Created with Fabric.js 5.2.4</desc>
	<defs>
</defs>
	<g transform="matrix(1 0 0 1 540 540)" id="21b89547-92e0-405a-a616-1df5b310a6cd"  >
<rect style="stroke: none; stroke-width: 1; stroke-dasharray: none; stroke-linecap: butt; stroke-dashoffset: 0; stroke-linejoin: miter; stroke-miterlimit: 4; fill: rgb(255,255,255); fill-rule: nonzero; opacity: 1; visibility: hidden;" vector-effect="non-scaling-stroke"  x="-540" y="-540" rx="0" ry="0" width="1080" height="1080" />
</g>
	<g transform="matrix(1 0 0 1 540 540)" id="caf9fa4c-512f-421a-afb3-cdf129056418"  >
</g>
	<g transform="matrix(1 0 0 1 540 664.34)"  >
<g style="" vector-effect="non-scaling-stroke"   >
		<g transform="matrix(1 0 0 1 0 0)"  >
<rect style="stroke: none; stroke-width: 0; stroke-dasharray: none; stroke-linecap: butt; stroke-dashoffset: 0; stroke-linejoin: miter; stroke-miterlimit: 4; fill: rgb(255,255,255); fill-opacity: 0; fill-rule: nonzero; opacity: 1;" vector-effect="non-scaling-stroke"  paint-order="stroke"  x="-640" y="-512" rx="0" ry="0" width="1280" height="1024" />
</g>
	<g transform="matrix(21.29 0 0 21.29 0.38 -20.86)"  >
<path style="stroke: none; stroke-width: 1; stroke-dasharray: none; stroke-linecap: butt; stroke-dashoffset: 0; stroke-linejoin: miter; stroke-miterlimit: 4; fill: rgb(255,255,255); fill-rule: nonzero; opacity: 1;" vector-effect="non-scaling-stroke"  paint-order="stroke"  transform=" translate(251, -307)" d="M -243.5 296.7 L -243.5 296.7 z M -231.3 308 C -230.8 308 -230.3 307.6 -230.3 307 C -230.3 306.4 -230.70000000000002 306 -231.3 306 L -231.8 306 L -231.8 303 C -231.8 302.2 -232.4 301.6 -233.20000000000002 301.6 L -233.70000000000002 301.6 C -234.50000000000003 301.6 -235.10000000000002 302.20000000000005 -235.10000000000002 303 L -235.10000000000002 301.6 C -235.10000000000002 300.40000000000003 -236.10000000000002 299.40000000000003 -237.3 299.40000000000003 L -238.10000000000002 299.40000000000003 C -239.3 299.40000000000003 -240.3 300.40000000000003 -240.3 301.6 L -240.3 306 L -242.8 306 L -243.8 306 L -244.8 306 L -247.3 306 L -249.20000000000002 306 L -251.00000000000003 306 L -252.00000000000003 306 L -252.00000000000003 307.9 L -251.00000000000003 307.9 L -249.20000000000002 307.9 L -249.20000000000002 319.9 L -249.20000000000002 320.09999999999997 C -249.8 320.29999999999995 -250.4 320.4 -251.00000000000003 320.4 C -251.60000000000002 320.4 -252.20000000000002 320.29999999999995 -252.80000000000004 320.09999999999997 L -252.80000000000004 320 L -252.80000000000004 294 L -252.80000000000004 293.8 C -252.20000000000005 293.6 -251.60000000000005 293.5 -251.00000000000003 293.5 C -250.40000000000003 293.5 -249.80000000000004 293.6 -249.20000000000002 293.8 L -249.20000000000002 294 L -249.20000000000002 298.8 L -249.20000000000002 299.90000000000003 L -249.20000000000002 300.8 L -248.20000000000002 300.8 L -247.20000000000002 300.8 L -244.70000000000002 300.8 L -243.70000000000002 300.8 L -242.70000000000002 300.8 L -242.70000000000002 299.8 L -242.70000000000002 299.7 L -242.70000000000002 298.8 L -242.8 298.8 C -242.9 298 -243.10000000000002 297.3 -243.4 296.6 C -243.8 295.6 -244.4 294.70000000000005 -245.20000000000002 293.90000000000003 C -245.9 293.20000000000005 -246.8 292.50000000000006 -247.8 292.1 C -248.8 291.70000000000005 -249.8 291.5 -250.9 291.5 C -252 291.5 -253.1 291.7 -254 292.1 C -255 292.5 -255.9 293.1 -256.7 293.90000000000003 C -257.4 294.70000000000005 -258.09999999999997 295.50000000000006 -258.5 296.50000000000006 C -258.8 297.20000000000005 -259 297.90000000000003 -259.1 298.70000000000005 L -259.20000000000005 298.70000000000005 L -259.20000000000005 299.6 L -259.20000000000005 299.70000000000005 L -259.20000000000005 300.70000000000005 L -259.20000000000005 306.00000000000006 L -261.70000000000005 306.00000000000006 L -261.70000000000005 301.6000000000001 C -261.70000000000005 300.4000000000001 -262.70000000000005 299.4000000000001 -263.90000000000003 299.4000000000001 L -264.70000000000005 299.4000000000001 C -265.90000000000003 299.4000000000001 -266.90000000000003 300.4000000000001 -266.90000000000003 301.6000000000001 L -266.90000000000003 303.00000000000006 C -266.90000000000003 302.20000000000005 -267.50000000000006 301.6000000000001 -268.3 301.6000000000001 L -268.8 301.6000000000001 C -269.6 301.6000000000001 -270.2 302.2000000000001 -270.2 303.00000000000006 L -270.2 306.00000000000006 L -270.7 306.00000000000006 C -271.2 306.00000000000006 -271.7 306.40000000000003 -271.7 307.00000000000006 C -271.7 307.6000000000001 -271.3 308.00000000000006 -270.7 308.00000000000006 L -270.2 308.00000000000006 L -270.2 311.00000000000006 C -270.2 311.80000000000007 -269.59999999999997 312.40000000000003 -268.8 312.40000000000003 L -268.3 312.40000000000003 C -267.5 312.40000000000003 -266.90000000000003 311.8 -266.90000000000003 311.00000000000006 L -266.90000000000003 312.40000000000003 C -266.90000000000003 313.6 -265.90000000000003 314.6 -264.70000000000005 314.6 L -263.90000000000003 314.6 C -262.70000000000005 314.6 -261.70000000000005 313.6 -261.70000000000005 312.40000000000003 L -261.70000000000005 308 L -259.20000000000005 308 L -257.30000000000007 308 L -259.20000000000005 309 L -259.20000000000005 313.3 L -259.20000000000005 314.3 L -259.20000000000005 315.3 L -259.1 315.3 C -258.90000000000003 317.2 -258 318.8 -256.8 320.1 C -255.3 321.6 -253.3 322.5 -251 322.5 C -248.8 322.5 -246.7 321.6 -245.2 320.1 C -243.89999999999998 318.8 -243.1 317.20000000000005 -242.89999999999998 315.3 L -242.79999999999998 315.3 L -242.79999999999998 314.3 L -242.79999999999998 313.3 L -242.79999999999998 308 L -240.29999999999998 308 L -240.29999999999998 312.4 C -240.29999999999998 313.59999999999997 -239.29999999999998 314.59999999999997 -238.1 314.59999999999997 L -237.29999999999998 314.59999999999997 C -236.1 314.59999999999997 -235.1 313.59999999999997 -235.1 312.4 L -235.1 311 C -235.1 311.8 -234.5 312.4 -233.7 312.4 L -233.2 312.4 C -232.39999999999998 312.4 -231.79999999999998 311.79999999999995 -231.79999999999998 311 L -231.79999999999998 308 C -231.7 308 -231.3 308 -231.3 308 z M -242.8 306 L -242.8 306 z M -245.2 294 L -245.2 294 z M -256.8 294 L -256.8 294 z M -258.5 296.7 L -258.5 296.7 z M -256.8 320 L -256.8 320 z M -238.4 312.7 L -238.4 308 L -238.4 306 L -238.4 301.3 L -237.5 301.3 L -238.4 312.7 z M -235.1 310.5 L -235.1 303.5 L -234.2 303.5 L -235.1 310.5 z M -263.6 308 L -263.6 312.7 L -264.5 301.3 L -263.6 301.3 L -263.6 306 L -263.6 308 z M -266.9 303.5 L -266.9 310.5 L -267.79999999999995 303.5 L -266.9 303.5 z" stroke-linecap="round" />
</g>
	<g transform="matrix(0.55 0 0 0.55 -118.33 29.29)"  >
<rect style="stroke: none; stroke-width: 0; stroke-dasharray: none; stroke-linecap: butt; stroke-dashoffset: 0; stroke-linejoin: miter; stroke-miterlimit: 4; fill: rgb(255,255,255); fill-rule: nonzero; opacity: 1;" vector-effect="non-scaling-stroke"  paint-order="stroke"  x="-100" y="-100" rx="0" ry="0" width="200" height="200" />
</g>
</g>
</g>
</svg>